<?xml version="1.0" encoding="UTF-8" standalone="no"?>
<svg
   xmlns:dc="http://purl.org/dc/elements/1.1/"
   xmlns:cc="http://creativecommons.org/ns#"
   xmlns:rdf="http://www.w3.org/1999/02/22-rdf-syntax-ns#"
   xmlns:svg="http://www.w3.org/2000/svg"
   xmlns="http://www.w3.org/2000/svg"
   xmlns:sodipodi="http://sodipodi.sourceforge.net/DTD/sodipodi-0.dtd"
   xmlns:inkscape="http://www.inkscape.org/namespaces/inkscape"
   width="650"
   height="500"
   version="1.1"
   viewBox="0 0 650.00001 500.00001"
   id="svg56"
   sodipodi:docname="browser.svg"
   inkscape:version="0.92.3 (2405546, 2018-03-11)">
  <metadata
     id="metadata60">
    <rdf:RDF>
      <cc:Work
         rdf:about="">
        <dc:format>image/svg+xml</dc:format>
        <dc:type
           rdf:resource="http://purl.org/dc/dcmitype/StillImage" />
      </cc:Work>
    </rdf:RDF>
  </metadata>
  <sodipodi:namedview
     pagecolor="#ffffff"
     bordercolor="#666666"
     borderopacity="1"
     objecttolerance="10"
     gridtolerance="10"
     guidetolerance="10"
     inkscape:pageopacity="0"
     inkscape:pageshadow="2"
     inkscape:window-width="1920"
     inkscape:window-height="1028"
     id="namedview58"
     showgrid="false"
     inkscape:zoom="0.86772068"
     inkscape:cx="289.77963"
     inkscape:cy="249.99999"
     inkscape:window-x="0"
     inkscape:window-y="24"
     inkscape:window-maximized="1"
     inkscape:current-layer="svg56" />
  <defs
     id="defs14">
    <marker
       id="h"
       overflow="visible"
       orient="auto"
       style="overflow:visible">
      <path
         transform="matrix(0.2,0,0,0.2,1.48,0.2)"
         d="m -2.5,-1 c 0,2.76 -2.24,5 -5,5 -2.76,0 -5,-2.24 -5,-5 0,-2.76 2.24,-5 5,-5 2.76,0 5,2.24 5,5 z"
         id="path2"
         inkscape:connector-curvature="0"
         style="fill:#62d5e9;fill-rule:evenodd;stroke:#62d5e9;stroke-width:1.00000003pt" />
    </marker>
    <marker
       id="g"
       overflow="visible"
       orient="auto"
       style="overflow:visible">
      <path
         transform="matrix(0.2,0,0,0.2,1.48,0.2)"
         d="m -2.5,-1 c 0,2.76 -2.24,5 -5,5 -2.76,0 -5,-2.24 -5,-5 0,-2.76 2.24,-5 5,-5 2.76,0 5,2.24 5,5 z"
         id="path5"
         inkscape:connector-curvature="0"
         style="fill:#62d5e9;fill-rule:evenodd;stroke:#62d5e9;stroke-width:1.00000003pt" />
    </marker>
    <marker
       id="e"
       overflow="visible"
       orient="auto"
       style="overflow:visible">
      <path
         transform="matrix(0.2,0,0,0.2,1.48,0.2)"
         d="m -2.5,-1 c 0,2.76 -2.24,5 -5,5 -2.76,0 -5,-2.24 -5,-5 0,-2.76 2.24,-5 5,-5 2.76,0 5,2.24 5,5 z"
         id="path8"
         inkscape:connector-curvature="0"
         style="fill:#62d5e9;fill-rule:evenodd;stroke:#62d5e9;stroke-width:1.00000003pt" />
    </marker>
    <filter
       id="f"
       x="-0.068535998"
       y="-0.10456"
       width="1.1371"
       height="1.2091"
       style="color-interpolation-filters:sRGB">
      <feGaussianBlur
         stdDeviation="13.463792"
         id="feGaussianBlur11" />
    </filter>
  </defs>
  <rect
     x="89.262001"
     y="110.62002"
     width="471.48001"
     height="309.03"
     ry="0"
     id="rect20"
     style="fill-opacity:0.09042598;filter:url(#f)" />
  <rect
     x="89.262001"
     y="95.484016"
     width="471.48001"
     height="309.03"
     ry="0"
     id="rect22"
     style="fill:#ffffff" />
  <rect
     x="89.262001"
     y="95.484016"
     width="471.48001"
     height="16.292999"
     id="rect24"
     style="fill:#ededed" />
  <circle
     cx="97.407997"
     cy="103.63001"
     r="2.812"
     id="circle26"
     style="fill:#62d5e9" />
  <circle
     cx="114.28"
     cy="103.63001"
     r="2.812"
     id="circle28"
     style="fill:#ff8d72" />
  <circle
     cx="105.84"
     cy="103.63001"
     r="2.812"
     id="circle30"
     style="fill:#58f9a2" />
  <g
     transform="matrix(0.78849,0,0,0.78849,-57.868,14.298015)"
     id="g42">
    <path
       d="m 438.93,275.9 a 92.148,92.148 0 0 1 -84.776,91.853 92.148,92.148 0 0 1 -98.341,-77.156 L 346.782,275.9 Z"
       id="path32"
       inkscape:connector-curvature="0"
       style="fill:#58f9a2" />
    <path
       d="m 264.69,225.71 a 92.148,92.148 0 0 1 66.136,-45.138 l 13.719,91.121 z"
       id="path34"
       inkscape:connector-curvature="0"
       style="fill:#ff8d72" />
    <path
       d="m 337.94,181.3 a 92.148,92.148 0 0 1 70.338,21.558 92.148,92.148 0 0 1 32.142,66.175 l -92.069,3.8257 z"
       id="path36"
       inkscape:connector-curvature="0"
       style="fill:#62d5e9" />
    <path
       d="m 244.21,287.21 a 92.148,92.148 0 0 1 -0.55826,-15.453 l 92.043,4.4113 z"
       id="path38"
       inkscape:connector-curvature="0"
       style="fill-opacity:0.09019602" />
    <path
       d="m 247.94,265.78 a 92.148,92.148 0 0 1 10.38,-35.315 l 81.437,43.12 z"
       id="path40"
       inkscape:connector-curvature="0"
       style="fill:#f0ef94" />
  </g>
  <g
     transform="translate(3.8713,1.4648438e-5)"
     id="g52">
    <rect
       x="384.03"
       y="273.48999"
       width="24.768"
       height="31.011"
       id="rect44"
       style="fill:#ff8d72" />
    <rect
       x="418.42999"
       y="257.38"
       width="24.768"
       height="47.122002"
       id="rect46"
       style="fill:#62d5e9" />
    <rect
       x="452.82999"
       y="268.92999"
       width="24.768"
       height="35.570999"
       id="rect48"
       style="fill:#f0ef94" />
    <rect
       x="487.23001"
       y="208.28999"
       width="24.768"
       height="96.212997"
       id="rect50"
       style="fill:#58f9a2" />
  </g>
  <path
     d="m 134.13,362.60001 54.533,-15.812 54.533,13.086 54.533,9.2694 54.533,-25.082 54.533,11.45 54.533,0.54525 54.533,-14.177"
     id="path54"
     inkscape:connector-curvature="0"
     style="fill:none;stroke:#62d5e9;stroke-width:3;marker-start:url(#h);marker-mid:url(#e);marker-end:url(#g)" />
</svg>
