<?xml version="1.0" encoding="UTF-8" standalone="no"?>
<svg
   xmlns:dc="http://purl.org/dc/elements/1.1/"
   xmlns:cc="http://creativecommons.org/ns#"
   xmlns:rdf="http://www.w3.org/1999/02/22-rdf-syntax-ns#"
   xmlns:svg="http://www.w3.org/2000/svg"
   xmlns="http://www.w3.org/2000/svg"
   id="svg8"
   version="1.1"
   viewBox="0 0 95.384315 25.414562"
   height="25.414562mm"
   width="95.384315mm">
  <defs
     id="defs2" />
  <metadata
     id="metadata5">
    <rdf:RDF>
      <cc:Work
         rdf:about="">
        <dc:format>image/svg+xml</dc:format>
        <dc:type
           rdf:resource="http://purl.org/dc/dcmitype/StillImage" />
        <dc:title></dc:title>
      </cc:Work>
    </rdf:RDF>
  </metadata>
  <g
     transform="translate(-50.335011,-96.048108)"
     id="layer1">
    <flowRoot
       transform="scale(0.26458333)"
       style="font-style:normal;font-weight:normal;font-size:5.33333349px;line-height:1.25;font-family:sans-serif;letter-spacing:0px;word-spacing:0px;fill:#000000;fill-opacity:1;stroke:none"
       id="flowRoot815"
       xml:space="preserve"><flowRegion
         style="font-size:5.33333349px"
         id="flowRegion817"><rect
           style="font-size:5.33333349px"
           y="116.81445"
           x="86.622787"
           height="142.41373"
           width="405.21844"
           id="rect819" /></flowRegion><flowPara
         id="flowPara821"></flowPara></flowRoot>    <g
       id="text825"
       style="font-style:normal;font-weight:normal;font-size:21.16666603px;line-height:1.25;font-family:sans-serif;letter-spacing:0px;word-spacing:0px;fill:#000000;fill-opacity:1;stroke:none;stroke-width:0.26458332"
       aria-label="Soy Ricardo">
      <path
         id="path827"
         style="font-style:normal;font-variant:normal;font-weight:normal;font-stretch:normal;font-size:21.16666603px;font-family:Sacramento;-inkscape-font-specification:'Sacramento, Normal';font-variant-ligatures:normal;font-variant-caps:normal;font-variant-numeric:normal;font-feature-settings:normal;text-align:start;writing-mode:lr-tb;text-anchor:start;stroke-width:0.26458332"
         d="m 68.049692,100.8541 q -0.03101,0.14469 -0.134358,0.22737 -0.103353,0.0827 -0.227377,0.0827 -0.186035,0 -0.299723,-0.11368 -0.113688,-0.12403 -0.113688,-0.27906 0,-0.15503 0.03101,-0.29972 0.031,-0.15503 0.031,-0.29972 0,-0.754479 -0.465087,-1.353926 -0.465088,-0.599446 -1.322917,-1.002522 -0.847493,-0.413412 -2.067057,-0.630453 -1.219564,-0.217041 -2.718181,-0.217041 -1.147216,0 -2.315104,0.155029 -1.157552,0.144694 -2.232421,0.434083 -1.064535,0.279052 -1.994711,0.713134 -0.930175,0.423747 -1.62264,0.992188 -0.682128,0.558105 -1.074869,1.250568 -0.392741,0.68213 -0.392741,1.49862 0,0.63045 0.268717,1.11621 0.279053,0.47542 0.754476,0.83716 0.475423,0.3514 1.116211,0.60978 0.651123,0.24805 1.405599,0.42375 0.754476,0.16536 1.570963,0.27905 0.816488,0.10335 1.643311,0.1757 l 1.591634,0.13436 q 1.188558,0.10335 2.129069,0.21704 0.940511,0.11369 1.653646,0.28939 1.188558,0.29972 1.756998,0.85782 0.568441,0.55811 0.568441,1.48829 0,0.89917 -0.496094,1.58129 -0.496093,0.68213 -1.353922,1.14722 -0.857829,0.46509 -2.005046,0.7028 -1.147216,0.23771 -2.459798,0.23771 -1.426269,0 -2.511474,-0.19637 -1.07487,-0.18603 -1.808675,-0.41341 -0.72347,-0.23771 -1.105876,-0.43408 -0.382406,-0.19637 -0.413411,-0.21704 -0.186036,-0.10336 -0.186036,-0.33073 0,-0.1757 0.124024,-0.27905 0.124023,-0.11369 0.268717,-0.11369 0.113688,0 0.206706,0.062 0.01033,0 0.3514,0.18603 0.3514,0.1757 1.033528,0.39275 0.692465,0.21704 1.705323,0.39274 1.012858,0.1757 2.356445,0.1757 1.333252,0 2.356445,-0.21705 1.023193,-0.21704 1.715658,-0.59944 0.702799,-0.39274 1.054199,-0.90951 0.361735,-0.5271 0.361735,-1.13688 0,-0.36173 -0.134359,-0.62012 -0.124023,-0.26871 -0.3514,-0.45475 -0.227376,-0.19637 -0.54777,-0.33073 -0.310058,-0.13436 -0.682129,-0.22737 -0.392741,-0.10336 -0.847493,-0.1757 -0.444417,-0.0724 -0.919841,-0.12403 -0.475423,-0.0517 -0.961181,-0.093 -0.475423,-0.0414 -0.940511,-0.0827 l -1.591634,-0.13436 q -1.881022,-0.15502 -3.286621,-0.47542 -1.395264,-0.33073 -2.32544,-0.83716 -0.930175,-0.51676 -1.395263,-1.2299 -0.465088,-0.71313 -0.465088,-1.66398 0,-0.97151 0.434082,-1.77767 0.444417,-0.816484 1.198893,-1.467607 0.764811,-0.651123 1.777669,-1.126546 1.023194,-0.485758 2.180746,-0.806152 1.157552,-0.320394 2.397786,-0.475423 1.240234,-0.165365 2.439127,-0.165365 1.498617,0 2.604493,0.186035 1.116211,0.1757 1.901692,0.465088 0.795817,0.279053 1.302246,0.640788 0.506429,0.361735 0.816488,0.713135 0.733805,0.857828 0.733805,1.953367 0,0.36174 -0.07235,0.69247 z" />
      <path
         id="path829"
         style="font-style:normal;font-variant:normal;font-weight:normal;font-stretch:normal;font-size:21.16666603px;font-family:Sacramento;-inkscape-font-specification:'Sacramento, Normal';font-variant-ligatures:normal;font-variant-caps:normal;font-variant-numeric:normal;font-feature-settings:normal;text-align:start;writing-mode:lr-tb;text-anchor:start;stroke-width:0.26458332"
         d="m 71.822072,110.56926 q -0.258382,0 -0.454752,-0.0413 -0.15503,0.31006 -0.372071,0.57878 -0.217041,0.25838 -0.506429,0.45475 -0.279052,0.19637 -0.630452,0.31006 -0.3514,0.11369 -0.764811,0.11369 -0.485759,0 -0.888835,-0.1757 -0.403076,-0.16537 -0.702799,-0.46509 -0.299724,-0.31006 -0.465088,-0.7338 -0.165365,-0.43409 -0.165365,-0.95085 0,-0.66146 0.237712,-1.14722 0.237711,-0.49609 0.54777,-0.81648 0.310058,-0.33073 0.620117,-0.48576 0.310059,-0.16537 0.465088,-0.16537 0.1757,0 0.258382,0.093 0.09302,0.093 0.09302,0.24805 0,0.1757 -0.113688,0.26871 -0.103353,0.0827 -0.268718,0.16537 -0.165365,0.0827 -0.3514,0.23771 -0.186035,0.14469 -0.351399,0.37207 -0.15503,0.22738 -0.258383,0.53744 -0.103352,0.31005 -0.103352,0.69246 0,0.34106 0.103352,0.64079 0.103353,0.28939 0.299724,0.50643 0.19637,0.2067 0.465088,0.33073 0.268717,0.11368 0.599446,0.11368 0.589112,0 0.971517,-0.26871 0.392741,-0.27906 0.599447,-0.7028 -0.609782,-0.3204 -1.002523,-0.90951 -0.392741,-0.58911 -0.392741,-1.32292 0,-0.58911 0.279053,-0.96118 0.289388,-0.37207 0.754476,-0.37207 0.279052,0 0.527099,0.13436 0.248047,0.13436 0.434082,0.42375 0.196371,0.28939 0.310059,0.74414 0.113688,0.45475 0.113688,1.0852 0,0.33073 -0.08268,0.69247 0.06201,0.0103 0.124023,0.0103 0.06201,0 0.134359,0 0.3514,0 0.630452,-0.0827 0.279053,-0.0827 0.506429,-0.24805 0.227377,-0.16536 0.403077,-0.42374 0.186035,-0.25838 0.351399,-0.59945 0.03101,-0.062 0.134359,-0.11369 0.103353,-0.062 0.206706,-0.062 0.134358,0 0.248047,0.11369 0.124023,0.10335 0.124023,0.27905 0,0.0827 -0.04134,0.18604 -0.04134,0.093 -0.08268,0.1757 -0.1757,0.31006 -0.413412,0.59944 -0.227376,0.27906 -0.54777,0.4961 -0.310059,0.2067 -0.702799,0.33073 -0.392741,0.12402 -0.8785,0.11368 z m -1.767334,-2.60449 q 0,0.19637 0.05168,0.41341 0.05168,0.21705 0.155029,0.43409 0.113688,0.2067 0.268717,0.40307 0.165365,0.18604 0.382406,0.3204 0.03101,-0.21704 0.03101,-0.42375 0,-0.27905 -0.04134,-0.56844 -0.04134,-0.28939 -0.124024,-0.5271 -0.07235,-0.24805 -0.186035,-0.39274 -0.113688,-0.15503 -0.268717,-0.15503 -0.06201,0 -0.165365,0.093 -0.103353,0.093 -0.103353,0.40307 z" />
      <path
         id="path831"
         style="font-style:normal;font-variant:normal;font-weight:normal;font-stretch:normal;font-size:21.16666603px;font-family:Sacramento;-inkscape-font-specification:'Sacramento, Normal';font-variant-ligatures:normal;font-variant-caps:normal;font-variant-numeric:normal;font-feature-settings:normal;text-align:start;writing-mode:lr-tb;text-anchor:start;stroke-width:0.26458332"
         d="m 77.599497,111.85084 q 0.361735,-0.36173 0.733806,-0.73381 0.37207,-0.3824 0.72347,-0.79581 0.351399,-0.41341 0.651123,-0.85783 0.310058,-0.45475 0.54777,-0.96118 0.05168,-0.11369 0.144694,-0.16537 0.09302,-0.062 0.206706,-0.062 0.175699,0 0.279052,0.12402 0.113688,0.12403 0.113688,0.27906 0,0.0827 -0.03101,0.15503 -0.320394,0.67179 -0.733806,1.2299 -0.413411,0.5581 -0.868164,1.06453 -0.454752,0.49609 -0.91984,0.96118 -0.465088,0.47542 -0.888835,0.95085 -0.04134,0.71313 0,1.42627 0.04134,0.72347 0.04134,1.52962 0,0.66146 -0.04134,1.32292 -0.04134,0.66145 -0.134359,1.2609 -0.09302,0.60978 -0.258382,1.13688 -0.155029,0.5271 -0.403076,0.90951 -0.248047,0.39274 -0.578776,0.60978 -0.330729,0.22738 -0.775146,0.22738 -0.733806,0 -1.126547,-0.50643 -0.39274,-0.50643 -0.39274,-1.41594 0,-0.49609 0.103352,-1.06453 0.113689,-0.56844 0.310059,-1.17822 0.196371,-0.59945 0.465088,-1.21957 0.279053,-0.62011 0.599447,-1.20923 0.320393,-0.58911 0.682128,-1.12654 0.361735,-0.5271 0.733806,-0.96118 0.02067,-0.4961 0.04134,-1.03353 0.03101,-0.5271 0.06201,-0.98185 -0.268718,0.47542 -0.671794,0.76481 -0.392741,0.28938 -0.868164,0.28938 -0.785482,0 -1.229899,-0.5271 -0.444417,-0.52709 -0.444417,-1.44694 0,-0.67179 0.124023,-1.21956 0.134359,-0.5581 0.279053,-0.95085 0.155029,-0.40307 0.279052,-0.60978 0.124024,-0.21704 0.124024,-0.2067 0.113688,-0.1757 0.320394,-0.1757 0.1757,0 0.279053,0.12402 0.113688,0.11369 0.113688,0.26872 0,0.11369 -0.06201,0.2067 0.01033,-0.0103 -0.103353,0.1757 -0.103353,0.1757 -0.237711,0.51677 -0.124024,0.34106 -0.237712,0.81649 -0.103353,0.47542 -0.103353,1.04386 0,0.56844 0.206706,0.88883 0.206706,0.3204 0.671793,0.3204 0.589112,0 1.064535,-0.86817 0.475423,-0.8785 0.806152,-2.54248 0.02067,-0.13436 0.124024,-0.21704 0.103352,-0.093 0.248046,-0.093 0.165365,0 0.279053,0.11369 0.113688,0.11369 0.113688,0.27906 0,0.031 -0.04134,0.37207 -0.04134,0.33073 -0.103353,0.88883 -0.05168,0.55811 -0.113688,1.30225 -0.06201,0.7338 -0.103353,1.57096 z m -0.826823,2.19108 q -0.465087,0.67179 -0.857828,1.41594 -0.382406,0.74414 -0.661459,1.47794 -0.279052,0.73381 -0.434082,1.4056 -0.155029,0.67179 -0.155029,1.19889 0,0.53744 0.1757,0.83716 0.1757,0.31006 0.558105,0.31006 0.341065,0 0.599447,-0.34106 0.268717,-0.33073 0.444417,-0.95085 0.186035,-0.62012 0.279053,-1.50895 0.09302,-0.8785 0.09302,-1.97404 0,-0.44442 -0.02067,-0.89917 -0.01033,-0.45475 -0.02067,-0.97152 z" />
      <path
         id="path833"
         style="font-style:normal;font-variant:normal;font-weight:normal;font-stretch:normal;font-size:21.16666603px;font-family:Sacramento;-inkscape-font-specification:'Sacramento, Normal';font-variant-ligatures:normal;font-variant-caps:normal;font-variant-numeric:normal;font-feature-settings:normal;text-align:start;writing-mode:lr-tb;text-anchor:start;stroke-width:0.26458332"
         d="m 97.846323,99.045421 q 0.15503,0 0.268718,0.113688 0.124023,0.103353 0.124023,0.279053 0,0.227376 -0.19637,0.341064 -0.03101,0.02067 -0.279053,0.19637 -0.237712,0.175704 -0.5271,0.568444 -0.289388,0.39274 -0.558105,1.04386 -0.268718,0.64079 -0.341065,1.59164 -0.02067,0.16536 -0.03101,0.33072 0,0.16537 -0.01034,0.33073 0.186035,-0.0207 0.382406,-0.031 0.206706,-0.0207 0.434082,-0.0207 0.744141,0 1.436605,0.16536 0.692464,0.16537 1.27124,0.47542 1.498616,-0.59944 2.294436,-1.59163 0.79581,-0.99219 0.79581,-2.21175 0,-0.909506 -0.45475,-1.612305 -0.45475,-0.713135 -1.28157,-1.198893 -0.81649,-0.485759 -1.963708,-0.744141 -1.136881,-0.258382 -2.501139,-0.258382 -1.188558,0 -2.428792,0.186035 -1.2299,0.1757 -2.387452,0.537435 -1.147216,0.361735 -2.160074,0.89917 -1.012858,0.537435 -1.767334,1.240234 -0.754476,0.692467 -1.188558,1.550297 -0.434082,0.85782 -0.434082,1.86035 0,0.74414 0.258382,1.31258 0.258382,0.5581 0.682129,0.94051 0.434082,0.37207 0.992187,0.56844 0.558106,0.18604 1.167888,0.18604 0.72347,0 1.27124,-0.1447 0.54777,-0.14469 0.91984,-0.31006 0.372071,-0.1757 0.558106,-0.32039 0.19637,-0.15503 0.217041,-0.1757 0.07235,-0.0517 0.165364,-0.11369 0.09302,-0.0724 0.196371,-0.0724 0.155029,0 0.268717,0.11369 0.113688,0.10336 0.113688,0.26872 0,0.16536 -0.113688,0.26872 -0.02067,0.0207 -0.268717,0.22737 -0.237712,0.19637 -0.692464,0.42375 -0.454753,0.22738 -1.116211,0.41341 -0.651123,0.18604 -1.498617,0.18604 -0.785482,0 -1.498616,-0.25839 -0.7028,-0.25838 -1.240235,-0.74414 -0.537435,-0.48575 -0.857828,-1.17822 -0.310059,-0.7028 -0.310059,-1.59163 0,-0.98185 0.403076,-1.88102 0.403076,-0.90951 1.136882,-1.694991 0.733805,-0.785482 1.756998,-1.415935 1.023194,-0.640787 2.253093,-1.09554 1.240234,-0.454753 2.656168,-0.702799 1.415934,-0.248047 2.924886,-0.248047 1.539958,0 2.821533,0.310058 1.291915,0.299724 2.222085,0.8785 0.93018,0.56844 1.44694,1.405599 0.51677,0.826822 0.51677,1.881025 0,1.39526 -0.80616,2.53214 -0.79581,1.13688 -2.34611,1.89136 0.56844,0.48576 0.88884,1.13688 0.33073,0.64079 0.48576,1.30225 0.16536,0.66145 0.2067,1.2609 0.0517,0.59945 0.0724,1.00252 0.0207,0.58912 0.10335,0.96119 0.093,0.36173 0.24805,0.56844 0.16536,0.2067 0.39274,0.28938 0.23771,0.0724 0.56844,0.0724 0.46509,0 0.85783,-0.21704 0.39274,-0.22738 0.7028,-0.5581 0.32039,-0.33073 0.5581,-0.71314 0.24805,-0.39274 0.41342,-0.72347 0.16536,-0.34106 0.24804,-0.55811 0.093,-0.22737 0.093,-0.23771 0.10335,-0.25838 0.36173,-0.25838 0.1757,0 0.27906,0.12402 0.11369,0.11369 0.11369,0.26872 0,0.0517 -0.0207,0.13436 -0.0103,0.0413 -0.12402,0.32039 -0.10335,0.26872 -0.31006,0.66146 -0.2067,0.38241 -0.51676,0.82683 -0.31006,0.44441 -0.72347,0.82682 -0.40308,0.37207 -0.91984,0.62012 -0.50643,0.24804 -1.12655,0.24804 -0.54777,0 -0.91984,-0.1757 -0.36173,-0.1757 -0.59945,-0.50643 -0.22737,-0.34106 -0.34106,-0.81648 -0.10335,-0.48576 -0.12402,-1.10588 -0.0103,-0.25838 -0.031,-0.60978 -0.0207,-0.36174 -0.0827,-0.75448 -0.0517,-0.40307 -0.15503,-0.82682 -0.10335,-0.42375 -0.28939,-0.82682 -0.18603,-0.40308 -0.46509,-0.76481 -0.27905,-0.36174 -0.682124,-0.63046 -0.795817,0.26872 -1.653646,0.42375 -0.847493,0.14469 -1.756999,0.15503 v 0.31006 q 0,1.27124 -0.258382,2.38745 -0.248047,1.10587 -0.816487,1.9327 -0.568441,0.81649 -1.467611,1.28157 -0.89917,0.47543 -2.191081,0.47543 -0.640787,0 -1.27124,-0.1757 -0.620117,-0.16537 -1.167887,-0.46509 -0.537435,-0.29972 -0.971517,-0.7028 -0.423747,-0.41341 -0.671794,-0.88884 -0.05168,-0.0827 -0.05168,-0.18603 0,-0.14469 0.103353,-0.25838 0.113688,-0.12403 0.289388,-0.12403 0.227376,0 0.341064,0.19637 0.227376,0.40308 0.589111,0.74414 0.361735,0.34107 0.806153,0.58912 0.454752,0.23771 0.961181,0.37207 0.516765,0.13436 1.043864,0.13436 1.064535,0 1.819011,-0.37208 0.754476,-0.3824 1.229899,-1.07486 0.475423,-0.7028 0.692464,-1.67432 0.217041,-0.98185 0.217041,-2.19108 v -0.40308 q -0.341065,-0.11369 -0.54777,-0.32039 -0.206706,-0.20671 -0.206706,-0.50643 0,-0.29972 0.19637,-0.5271 0.196371,-0.22738 0.558106,-0.37207 0,-0.23771 0.01033,-0.46509 0.01034,-0.23771 0.03101,-0.46509 0.06201,-0.74414 0.227376,-1.33325 0.1757,-0.58911 0.403076,-1.03353 0.237712,-0.44441 0.485759,-0.754473 0.248047,-0.310059 0.465088,-0.506429 0.217041,-0.206706 0.361735,-0.299723 0.144694,-0.09302 0.165364,-0.103353 0.07235,-0.04134 0.1757,-0.04134 z m 0.971517,5.767089 q -0.1757,-0.0517 -0.341064,-0.10335 -0.165365,-0.0517 -0.361735,-0.0827 -0.186035,-0.0413 -0.423747,-0.062 -0.227376,-0.031 -0.5271,-0.031 -0.537435,0 -0.878499,0.062 v 0.0103 0.4961 q 0.630452,0 1.291911,-0.0724 0.671793,-0.0724 1.240234,-0.21704 z" />
      <path
         id="path835"
         style="font-style:normal;font-variant:normal;font-weight:normal;font-stretch:normal;font-size:21.16666603px;font-family:Sacramento;-inkscape-font-specification:'Sacramento, Normal';font-variant-ligatures:normal;font-variant-caps:normal;font-variant-numeric:normal;font-feature-settings:normal;text-align:start;writing-mode:lr-tb;text-anchor:start;stroke-width:0.26458332"
         d="m 108.01624,103.59295 q 0,0.39274 -0.27905,0.67179 -0.26872,0.26872 -0.66146,0.26872 -0.39274,0 -0.67179,-0.26872 -0.26872,-0.27905 -0.26872,-0.67179 0,-0.19637 0.0724,-0.36174 0.0723,-0.1757 0.19637,-0.29972 0.13436,-0.13436 0.29972,-0.20671 0.1757,-0.0723 0.37207,-0.0723 0.19637,0 0.36174,0.0723 0.1757,0.0724 0.29972,0.20671 0.13436,0.12402 0.20671,0.29972 0.0723,0.16537 0.0723,0.36174 z m -1.67431,6.05647 q 0,-1.48828 0.18603,-2.96622 0.0207,-0.1447 0.12403,-0.24805 0.11368,-0.11369 0.28938,-0.11369 0.15503,0 0.25839,0.12403 0.10335,0.11368 0.10335,0.26871 0,0.062 -0.031,0.37207 -0.0207,0.31006 -0.062,0.74414 -0.031,0.42375 -0.062,0.90951 -0.0207,0.47542 -0.0207,0.8785 0,0.54777 0.10335,0.88883 0.11369,0.33073 0.27905,0.51677 0.1757,0.18603 0.36174,0.24804 0.19637,0.062 0.37207,0.062 0.28939,0 0.59945,-0.20671 0.31005,-0.20671 0.63045,-0.57878 0.33073,-0.37207 0.66146,-0.88883 0.33073,-0.5271 0.65112,-1.16789 0.0517,-0.10335 0.14469,-0.15503 0.093,-0.062 0.20671,-0.062 0.16536,0 0.26872,0.12402 0.11368,0.12403 0.11368,0.26872 0,0.10335 -0.0413,0.1757 -0.12402,0.23771 -0.31005,0.57878 -0.18604,0.34106 -0.42375,0.7028 -0.23771,0.36173 -0.5271,0.72347 -0.27905,0.3514 -0.59945,0.64079 -0.32039,0.27905 -0.67179,0.45475 -0.3514,0.1757 -0.71314,0.1757 -0.46508,0 -0.81648,-0.19637 -0.3514,-0.19637 -0.59945,-0.5271 -0.23771,-0.33073 -0.36174,-0.77515 -0.11368,-0.45475 -0.11368,-0.97152 z m 1.09554,-6.05647 q 0,-0.1447 -0.11369,-0.24805 -0.10335,-0.11369 -0.24805,-0.11369 -0.14469,0 -0.24804,0.11369 -0.10336,0.10335 -0.10336,0.24805 0,0.14469 0.10336,0.24804 0.10335,0.10336 0.24804,0.10336 0.1447,0 0.24805,-0.10336 0.11369,-0.10335 0.11369,-0.24804 z" />
      <path
         id="path837"
         style="font-style:normal;font-variant:normal;font-weight:normal;font-stretch:normal;font-size:21.16666603px;font-family:Sacramento;-inkscape-font-specification:'Sacramento, Normal';font-variant-ligatures:normal;font-variant-caps:normal;font-variant-numeric:normal;font-feature-settings:normal;text-align:start;writing-mode:lr-tb;text-anchor:start;stroke-width:0.26458332"
         d="m 117.55571,108.84327 q -0.062,0.11369 -0.21704,0.41341 -0.14469,0.29973 -0.40308,0.68213 -0.24804,0.37207 -0.59944,0.77515 -0.3514,0.40307 -0.80615,0.74414 -0.45476,0.33073 -1.0232,0.54777 -0.5581,0.21704 -1.21956,0.21704 -0.58911,0 -1.04386,-0.21704 -0.45476,-0.20671 -0.77515,-0.58911 -0.3204,-0.39274 -0.48576,-0.91984 -0.16536,-0.5271 -0.16536,-1.16789 0,-0.62012 0.1757,-1.15755 0.1757,-0.54777 0.47542,-0.95085 0.31006,-0.40307 0.71313,-0.63045 0.40308,-0.23771 0.85783,-0.23771 0.34107,0 0.62012,0.12402 0.27905,0.11369 0.46509,0.31006 0.19637,0.19637 0.29972,0.43408 0.11369,0.23771 0.11369,0.47543 0,0.22737 -0.062,0.42374 -0.0517,0.19637 -0.1447,0.3514 -0.0827,0.1447 -0.19637,0.23771 -0.11369,0.0827 -0.22737,0.0827 -0.1757,0 -0.28939,-0.11369 -0.10335,-0.11369 -0.10335,-0.27906 0,-0.0827 0.031,-0.14469 0.0413,-0.062 0.0827,-0.12402 0.0517,-0.0724 0.0827,-0.16537 0.0413,-0.10335 0.0413,-0.25838 0,-0.21704 -0.20671,-0.39274 -0.19637,-0.1757 -0.50643,-0.1757 -0.28939,0 -0.5581,0.1757 -0.25839,0.1757 -0.45476,0.47542 -0.19637,0.28939 -0.32039,0.69247 -0.11369,0.39274 -0.11369,0.83716 0,0.42374 0.10335,0.80615 0.10336,0.3824 0.31006,0.68213 0.20671,0.28938 0.51677,0.46508 0.32039,0.1757 0.75447,0.1757 0.55811,0 1.03353,-0.19637 0.47543,-0.2067 0.86817,-0.51676 0.39274,-0.31006 0.69246,-0.67179 0.29972,-0.37207 0.50643,-0.69247 0.21704,-0.33073 0.33073,-0.56844 0.12402,-0.24805 0.14469,-0.31006 0.0413,-0.10335 0.13436,-0.15503 0.10335,-0.062 0.21704,-0.062 0.1757,0 0.27906,0.12402 0.11368,0.12403 0.11368,0.27906 0,0.062 -0.0413,0.16536 z" />
      <path
         id="path839"
         style="font-style:normal;font-variant:normal;font-weight:normal;font-stretch:normal;font-size:21.16666603px;font-family:Sacramento;-inkscape-font-specification:'Sacramento, Normal';font-variant-ligatures:normal;font-variant-caps:normal;font-variant-numeric:normal;font-feature-settings:normal;text-align:start;writing-mode:lr-tb;text-anchor:start;stroke-width:0.26458332"
         d="m 124.86276,108.8226 q -0.0413,0.0827 -0.1757,0.3514 -0.12402,0.25838 -0.33073,0.59945 -0.19637,0.34106 -0.46509,0.71313 -0.26871,0.37207 -0.59944,0.68213 -0.33073,0.31006 -0.71314,0.51677 -0.3824,0.19637 -0.80615,0.19637 -0.59945,0 -1.01286,-0.38241 -0.40308,-0.38241 -0.58911,-0.96118 -0.3514,0.58911 -0.83716,0.94051 -0.48576,0.34106 -0.97152,0.34106 -0.3824,0 -0.69246,-0.13435 -0.31006,-0.1447 -0.5271,-0.39275 -0.21704,-0.25838 -0.34106,-0.59944 -0.11369,-0.34107 -0.11369,-0.74414 0,-0.80615 0.26872,-1.41594 0.27905,-0.62011 0.7028,-1.03353 0.42374,-0.41341 0.93017,-0.62011 0.51677,-0.20671 0.99219,-0.20671 0.32039,0 0.58911,0.093 0.26872,0.0827 0.45475,0.18603 0.19637,0.10336 0.29973,0.19638 0.10335,0.0827 0.11368,0.093 0.11369,0.13436 0.11369,0.27906 0,0.15502 -0.11369,0.27905 -0.11368,0.11369 -0.26871,0.11369 -0.16537,0 -0.27906,-0.11369 -0.0207,-0.0207 -0.093,-0.0724 -0.0724,-0.062 -0.19637,-0.12402 -0.12403,-0.062 -0.29973,-0.10336 -0.16536,-0.0517 -0.3824,-0.0517 -0.3204,0 -0.68213,0.14469 -0.36174,0.1447 -0.66146,0.45475 -0.29972,0.29973 -0.50643,0.76482 -0.19637,0.45475 -0.19637,1.0852 0,0.19637 0.0413,0.40308 0.0413,0.19637 0.1447,0.36173 0.10335,0.16537 0.27905,0.26872 0.1757,0.10335 0.43408,0.10335 0.18604,0 0.42375,-0.12402 0.24804,-0.12402 0.46508,-0.38241 0.22738,-0.25838 0.40308,-0.65112 0.18604,-0.39274 0.25838,-0.93018 0.0207,-0.14469 0.13436,-0.23771 0.11369,-0.10335 0.26872,-0.10335 0.14469,0 0.24805,0.11369 0.11368,0.11369 0.12402,0.25838 0.0103,0.19637 0.0413,0.55811 0.031,0.3514 0.13436,0.7028 0.11369,0.3514 0.33073,0.60978 0.21704,0.25838 0.59944,0.25838 0.24805,0 0.48576,-0.13436 0.24805,-0.13436 0.47543,-0.3514 0.23771,-0.22738 0.44441,-0.50643 0.21704,-0.28939 0.39274,-0.57877 0.1757,-0.28939 0.31006,-0.55811 0.13436,-0.26872 0.22738,-0.46509 0.0517,-0.11369 0.14469,-0.1757 0.10336,-0.062 0.21704,-0.062 0.1757,0 0.27906,0.13436 0.11369,0.12402 0.11369,0.26872 0,0.0723 -0.031,0.14469 z" />
      <path
         id="path841"
         style="font-style:normal;font-variant:normal;font-weight:normal;font-stretch:normal;font-size:21.16666603px;font-family:Sacramento;-inkscape-font-specification:'Sacramento, Normal';font-variant-ligatures:normal;font-variant-caps:normal;font-variant-numeric:normal;font-feature-settings:normal;text-align:start;writing-mode:lr-tb;text-anchor:start;stroke-width:0.26458332"
         d="m 125.23483,107.45834 q -0.0413,0.27906 -0.10336,0.5271 -0.062,0.23771 -0.12402,0.42375 -0.0517,0.1757 -0.093,0.28939 -0.0413,0.11369 -0.0517,0.12402 -0.10336,0.23771 -0.36174,0.23771 -0.14469,0 -0.26872,-0.10335 -0.12402,-0.11369 -0.12402,-0.27905 0,-0.062 0.0207,-0.093 0.0207,-0.031 0.062,-0.12402 0.0413,-0.093 0.10336,-0.31006 0.062,-0.21704 0.15503,-0.6718 -0.1757,0 -0.36174,-0.0103 -0.18603,-0.0103 -0.34106,-0.0724 -0.16537,-0.062 -0.26872,-0.19637 -0.10335,-0.13436 -0.10335,-0.37207 0,-0.1757 0.10335,-0.47542 0.093,-0.29973 0.25838,-0.58911 0.16537,-0.28939 0.37207,-0.4961 0.20671,-0.21704 0.41341,-0.21704 0.23771,0 0.38241,0.1757 0.15503,0.1757 0.23771,0.43408 0.0827,0.24805 0.11369,0.5271 0.0413,0.27906 0.0413,0.48576 0.1757,0 0.34106,0 0.1757,-0.0103 0.33073,-0.0103 0.58911,0 0.89917,0.25838 0.31006,0.25838 0.31006,0.84749 0,0.23771 -0.031,0.4961 -0.031,0.25838 -0.0724,0.53743 -0.0413,0.26872 -0.0724,0.53744 -0.031,0.26871 -0.031,0.5271 0,0.37207 0.10335,0.62011 0.10335,0.23771 0.25838,0.38241 0.15503,0.14469 0.33073,0.2067 0.1757,0.0517 0.32039,0.0517 0.44442,0 0.83716,-0.28939 0.39274,-0.28939 0.72347,-0.69246 0.33073,-0.41341 0.58911,-0.86817 0.26872,-0.45475 0.44442,-0.79581 0.0517,-0.093 0.14469,-0.1447 0.093,-0.0517 0.19638,-0.0517 0.18603,0 0.28938,0.12402 0.10336,0.11369 0.10336,0.25838 0,0.10335 -0.0413,0.18604 -0.23771,0.42374 -0.5581,0.96118 -0.31006,0.5271 -0.71314,0.99219 -0.40307,0.46508 -0.9095,0.78548 -0.49609,0.32039 -1.09554,0.32039 -0.37207,0 -0.7028,-0.14469 -0.33073,-0.13436 -0.57878,-0.39274 -0.23771,-0.26872 -0.3824,-0.65113 -0.1447,-0.39274 -0.1447,-0.8785 0,-0.51676 0.10336,-1.02319 0.10335,-0.51676 0.10335,-0.98185 0,-0.19637 -0.093,-0.28939 -0.0827,-0.10335 -0.3824,-0.10335 -0.1447,0 -0.3204,0 -0.16536,0 -0.36173,0.0103 z m -0.69247,-0.76481 q 0,-0.0723 -0.0103,-0.18603 0,-0.12403 -0.0207,-0.23771 -0.0103,-0.11369 -0.0413,-0.19637 -0.0207,-0.0827 -0.0517,-0.0827 -0.031,0 -0.0827,0.0827 -0.0413,0.0723 -0.093,0.18603 -0.0517,0.10335 -0.093,0.22738 -0.0413,0.12402 -0.062,0.2067 z" />
      <path
         id="path843"
         style="font-style:normal;font-variant:normal;font-weight:normal;font-stretch:normal;font-size:21.16666603px;font-family:Sacramento;-inkscape-font-specification:'Sacramento, Normal';font-variant-ligatures:normal;font-variant-caps:normal;font-variant-numeric:normal;font-feature-settings:normal;text-align:start;writing-mode:lr-tb;text-anchor:start;stroke-width:0.26458332"
         d="m 134.5676,108.69858 q 0.50643,2.38745 1.46761,2.38745 0.37207,0 0.71313,-0.26872 0.34107,-0.27905 0.63045,-0.67179 0.29973,-0.40308 0.5271,-0.8475 0.22738,-0.44441 0.37207,-0.77514 0.10336,-0.24805 0.36174,-0.24805 0.16536,0 0.27905,0.12402 0.11369,0.12403 0.11369,0.26872 0,0.0827 -0.031,0.1447 -0.0723,0.1757 -0.21704,0.47542 -0.13436,0.28939 -0.34106,0.63045 -0.19637,0.33073 -0.44442,0.68213 -0.24805,0.3514 -0.54777,0.63045 -0.29972,0.27906 -0.64079,0.46509 -0.33073,0.1757 -0.7028,0.1757 -0.69246,0 -1.18855,-0.47542 -0.4961,-0.48576 -0.85783,-1.59164 -0.4961,1.0542 -1.00253,1.52963 -0.50642,0.47542 -1.09554,0.47542 -0.31005,0 -0.59944,-0.10335 -0.28939,-0.093 -0.50643,-0.3204 -0.21704,-0.22737 -0.3514,-0.57877 -0.13436,-0.36174 -0.13436,-0.8785 0,-0.71314 0.24805,-1.31258 0.24804,-0.59945 0.64078,-1.0232 0.39275,-0.43408 0.86817,-0.67179 0.48576,-0.23771 0.96118,-0.23771 0.15503,0 0.26872,0.11369 0.11369,0.10335 0.11369,0.26871 0,0.1447 -0.093,0.25838 -0.093,0.11369 -0.24805,0.13436 -0.31006,0.0413 -0.66146,0.19637 -0.3514,0.15503 -0.65112,0.45476 -0.28939,0.28938 -0.48576,0.74414 -0.18603,0.45475 -0.18603,1.0852 0,0.51677 0.2067,0.80615 0.21704,0.28939 0.62012,0.28939 0.16536,0 0.3514,-0.0827 0.18603,-0.093 0.39274,-0.3514 0.21704,-0.25838 0.46509,-0.7338 0.25838,-0.47543 0.56844,-1.25057 -0.1757,-0.90951 -0.3204,-2.09807 -0.14469,-1.18856 -0.14469,-2.65617 0,-0.64078 0.0413,-1.33325 0.0413,-0.7028 0.13436,-1.36426 0.093,-0.67179 0.24805,-1.271236 0.15503,-0.599446 0.37207,-1.054199 0.22737,-0.454753 0.5271,-0.713135 0.29972,-0.268717 0.68213,-0.268717 0.34106,0 0.57877,0.186035 0.23771,0.186035 0.38241,0.516764 0.15503,0.330729 0.22737,0.795817 0.0724,0.465088 0.0724,1.023191 0,1.1989 -0.2067,2.39779 -0.20671,1.19889 -0.51677,2.29443 -0.29972,1.09554 -0.64079,2.02572 -0.34106,0.93017 -0.62011,1.60197 z m 1.20922,-8.33024 q 0,-0.25838 -0.0207,-0.558108 -0.0103,-0.299723 -0.0723,-0.558106 -0.0517,-0.268717 -0.1447,-0.444417 -0.093,-0.1757 -0.24804,-0.1757 -0.25839,0 -0.48576,0.454753 -0.21704,0.454752 -0.38241,1.198898 -0.16536,0.7338 -0.26872,1.67431 -0.093,0.93018 -0.093,1.88102 0,0.90951 0.0723,1.81901 0.0724,0.90951 0.16537,1.62264 0.29972,-0.79581 0.56844,-1.63297 0.26872,-0.84749 0.46509,-1.72599 0.2067,-0.8785 0.32039,-1.76734 0.12402,-0.89917 0.12402,-1.788 z" />
      <path
         id="path845"
         style="font-style:normal;font-variant:normal;font-weight:normal;font-stretch:normal;font-size:21.16666603px;font-family:Sacramento;-inkscape-font-specification:'Sacramento, Normal';font-variant-ligatures:normal;font-variant-caps:normal;font-variant-numeric:normal;font-feature-settings:normal;text-align:start;writing-mode:lr-tb;text-anchor:start;stroke-width:0.26458332"
         d="m 143.05286,110.56926 q -0.25838,0 -0.45475,-0.0413 -0.15503,0.31006 -0.37207,0.57878 -0.21704,0.25838 -0.50643,0.45475 -0.27905,0.19637 -0.63045,0.31006 -0.3514,0.11369 -0.76481,0.11369 -0.48576,0 -0.88884,-0.1757 -0.40307,-0.16537 -0.7028,-0.46509 -0.29972,-0.31006 -0.46509,-0.7338 -0.16536,-0.43409 -0.16536,-0.95085 0,-0.66146 0.23771,-1.14722 0.23771,-0.49609 0.54777,-0.81648 0.31006,-0.33073 0.62012,-0.48576 0.31006,-0.16537 0.46509,-0.16537 0.1757,0 0.25838,0.093 0.093,0.093 0.093,0.24805 0,0.1757 -0.11369,0.26871 -0.10336,0.0827 -0.26872,0.16537 -0.16536,0.0827 -0.3514,0.23771 -0.18603,0.14469 -0.3514,0.37207 -0.15503,0.22738 -0.25838,0.53744 -0.10335,0.31005 -0.10335,0.69246 0,0.34106 0.10335,0.64079 0.10335,0.28939 0.29972,0.50643 0.19637,0.2067 0.46509,0.33073 0.26872,0.11368 0.59945,0.11368 0.58911,0 0.97151,-0.26871 0.39274,-0.27906 0.59945,-0.7028 -0.60978,-0.3204 -1.00252,-0.90951 -0.39274,-0.58911 -0.39274,-1.32292 0,-0.58911 0.27905,-0.96118 0.28939,-0.37207 0.75447,-0.37207 0.27906,0 0.5271,0.13436 0.24805,0.13436 0.43409,0.42375 0.19637,0.28939 0.31006,0.74414 0.11368,0.45475 0.11368,1.0852 0,0.33073 -0.0827,0.69247 0.062,0.0103 0.12402,0.0103 0.062,0 0.13436,0 0.3514,0 0.63046,-0.0827 0.27905,-0.0827 0.50642,-0.24805 0.22738,-0.16536 0.40308,-0.42374 0.18604,-0.25838 0.3514,-0.59945 0.031,-0.062 0.13436,-0.11369 0.10335,-0.062 0.2067,-0.062 0.13436,0 0.24805,0.11369 0.12403,0.10335 0.12403,0.27905 0,0.0827 -0.0413,0.18604 -0.0413,0.093 -0.0827,0.1757 -0.1757,0.31006 -0.41341,0.59944 -0.22738,0.27906 -0.54777,0.4961 -0.31006,0.2067 -0.7028,0.33073 -0.39274,0.12402 -0.8785,0.11368 z m -1.76733,-2.60449 q 0,0.19637 0.0517,0.41341 0.0517,0.21705 0.15503,0.43409 0.11369,0.2067 0.26872,0.40307 0.16537,0.18604 0.38241,0.3204 0.031,-0.21704 0.031,-0.42375 0,-0.27905 -0.0413,-0.56844 -0.0413,-0.28939 -0.12402,-0.5271 -0.0724,-0.24805 -0.18604,-0.39274 -0.11369,-0.15503 -0.26872,-0.15503 -0.062,0 -0.16536,0.093 -0.10335,0.093 -0.10335,0.40307 z" />
    </g>
  </g>
</svg>
